<svg xmlns="http://www.w3.org/2000/svg" xmlns:xlink="http://www.w3.org/1999/xlink" width="500" zoomAndPan="magnify" viewBox="0 0 375 374.999991" height="500" preserveAspectRatio="xMidYMid meet" version="1.2"><defs><clipPath id="dab430da67"><path d="M 64 49 L 311 49 L 311 325.710938 L 64 325.710938 Z M 64 49 "/></clipPath><clipPath id="f11097f695"><path d="M 154.515625 167.460938 L 179.265625 167.460938 L 179.265625 207.210938 L 154.515625 207.210938 Z M 154.515625 167.460938 "/></clipPath><clipPath id="f645eb4a39"><path d="M 181.425781 167.460938 L 185.175781 167.460938 L 185.175781 207.539062 L 181.425781 207.539062 Z M 181.425781 167.460938 "/></clipPath><clipPath id="962be8414d"><path d="M 187.5 167.460938 L 210.398438 167.460938 L 210.398438 207.210938 L 187.5 207.210938 Z M 187.5 167.460938 "/></clipPath></defs><g id="80e5694a92"><path style=" stroke:none;fill-rule:evenodd;fill:#086fb6;fill-opacity:1;" d="M 162.132812 159.289062 C 146.328125 171.390625 143.335938 194.078125 155.472656 209.847656 C 161.347656 217.492188 169.855469 222.390625 179.425781 223.648438 C 188.992188 224.902344 198.476562 222.367188 206.136719 216.496094 C 221.941406 204.386719 224.925781 181.703125 212.796875 165.933594 C 206.917969 158.289062 198.414062 153.394531 188.84375 152.136719 C 179.28125 150.886719 169.792969 153.421875 162.132812 159.289062 Z M 162.132812 159.289062 "/><g clip-rule="nonzero" clip-path="url(#dab430da67)"><path style=" stroke:none;fill-rule:evenodd;fill:#0b4168;fill-opacity:1;" d="M 194.90625 111.386719 L 188.621094 145.066406 C 189 145.105469 189.378906 145.152344 189.757812 145.199219 C 191.679688 145.449219 193.566406 145.824219 195.40625 146.324219 L 201.691406 112.652344 C 201.742188 112.652344 201.800781 112.65625 201.851562 112.65625 C 206.019531 112.65625 210.214844 111.34375 213.773438 108.617188 C 222.347656 102.042969 223.96875 89.734375 217.386719 81.175781 C 210.800781 72.621094 198.46875 71 189.890625 77.574219 C 181.316406 84.144531 179.695312 96.453125 186.277344 105.011719 C 188.585938 108.007812 191.597656 110.148438 194.90625 111.386719 Z M 160.476562 151.882812 L 114.601562 92.949219 C 123.507812 83.914062 124.625 69.445312 116.675781 59.117188 C 112.46875 53.640625 106.371094 50.132812 99.515625 49.234375 C 98.457031 49.09375 97.398438 49.019531 96.347656 49.007812 L 95.863281 49.007812 C 90.28125 49.0625 84.886719 50.902344 80.378906 54.351562 C 74.898438 58.554688 71.378906 64.636719 70.480469 71.476562 C 69.578125 78.320312 71.402344 85.101562 75.609375 90.570312 C 79.820312 96.046875 85.914062 99.554688 92.769531 100.453125 C 93.914062 100.609375 95.058594 100.683594 96.199219 100.683594 C 100.769531 100.683594 105.214844 99.480469 109.160156 97.179688 L 155.027344 156.109375 C 155.933594 155.289062 156.875 154.488281 157.863281 153.738281 C 158.710938 153.082031 159.582031 152.464844 160.476562 151.882812 Z M 141.214844 183.703125 L 116.539062 183.269531 C 116.019531 178.785156 114.324219 174.375 111.367188 170.535156 C 107.152344 165.0625 101.0625 161.554688 94.207031 160.652344 C 87.359375 159.753906 80.554688 161.570312 75.074219 165.777344 C 63.753906 174.449219 61.613281 190.699219 70.300781 202 C 74.511719 207.472656 80.609375 210.980469 87.460938 211.882812 C 88.605469 212.03125 89.75 212.105469 90.890625 212.105469 C 96.554688 212.105469 102.035156 210.257812 106.601562 206.761719 C 112.109375 202.539062 115.441406 196.523438 116.414062 190.160156 L 141.09375 190.589844 C 140.945312 188.289062 140.992188 185.984375 141.214844 183.703125 Z M 176.738281 230.320312 L 171.527344 286.589844 C 167.910156 286.886719 164.332031 288.183594 161.25 290.554688 C 152.671875 297.125 151.054688 309.429688 157.640625 317.992188 C 161.492188 323.003906 167.324219 325.636719 173.214844 325.636719 C 177.375 325.636719 181.574219 324.324219 185.128906 321.597656 C 189.28125 318.410156 191.941406 313.808594 192.628906 308.625 C 193.304688 303.445312 191.933594 298.308594 188.738281 294.15625 C 186.042969 290.652344 182.375 288.308594 178.398438 287.21875 L 183.609375 230.957031 C 181.914062 230.933594 180.210938 230.816406 178.507812 230.589844 C 177.917969 230.511719 177.324219 230.417969 176.738281 230.320312 Z M 215.707031 217.246094 L 256.835938 249.765625 C 251.597656 258.582031 251.917969 270.070312 258.550781 278.691406 C 262.757812 284.167969 268.855469 287.671875 275.710938 288.574219 C 276.859375 288.730469 278.003906 288.796875 279.136719 288.796875 C 284.800781 288.796875 290.28125 286.949219 294.847656 283.453125 C 306.171875 274.777344 308.3125 258.527344 299.621094 247.234375 C 295.410156 241.757812 289.316406 238.253906 282.460938 237.351562 C 275.605469 236.449219 268.808594 238.269531 263.320312 242.476562 C 262.546875 243.074219 261.808594 243.710938 261.121094 244.371094 L 219.988281 211.859375 C 218.726562 213.742188 217.292969 215.542969 215.707031 217.246094 Z M 225.417969 175.390625 C 224.757812 173.210938 223.917969 171.0625 222.898438 168.980469 L 259.273438 154.707031 C 256.910156 145.058594 260.257812 134.476562 268.640625 128.050781 C 279.964844 119.378906 296.246094 121.511719 304.933594 132.8125 C 313.628906 144.113281 311.492188 160.359375 300.167969 169.039062 C 295.476562 172.632812 289.9375 174.371094 284.433594 174.371094 C 276.660156 174.371094 268.964844 170.890625 263.867188 164.273438 C 263.085938 163.257812 262.394531 162.203125 261.792969 161.117188 Z M 225.417969 175.390625 "/></g><g clip-rule="nonzero" clip-path="url(#f11097f695)"><path style=" stroke:none;fill-rule:nonzero;fill:#ffffff;fill-opacity:1;" d="M 173.925781 184.664062 L 169.605469 183.710938 C 164.945312 182.679688 163.15625 181.128906 163.15625 178.695312 C 163.15625 175.609375 165.53125 173.511719 170.066406 173.511719 C 173.847656 173.511719 176.320312 175.265625 177.203125 177.796875 C 177.265625 177.980469 177.328125 178.167969 177.371094 178.367188 C 177.410156 178.546875 177.441406 178.710938 177.46875 178.855469 C 177.539062 179.265625 177.898438 179.558594 178.316406 179.558594 L 183.890625 179.558594 C 184.128906 179.558594 184.359375 179.460938 184.523438 179.285156 C 184.6875 179.109375 184.769531 178.871094 184.753906 178.632812 C 184.273438 171.953125 178.449219 167.464844 170.257812 167.464844 C 161.359375 167.464844 155.378906 172.207031 155.378906 179.269531 C 155.378906 184.664062 159.480469 187.925781 166.300781 189.40625 L 171.167969 190.484375 C 175.984375 191.5625 177.84375 193.09375 177.84375 195.703125 C 177.84375 198.738281 174.835938 201.160156 170.414062 201.160156 C 166.347656 201.160156 163.332031 199.453125 162.277344 196.957031 C 162.101562 196.511719 161.976562 196.097656 161.894531 195.773438 C 161.796875 195.386719 161.453125 195.109375 161.054688 195.109375 L 155.378906 195.109375 C 155.140625 195.109375 154.90625 195.210938 154.746094 195.390625 C 154.582031 195.566406 154.5 195.804688 154.519531 196.046875 C 155.089844 202.824219 161.164062 207.207031 169.996094 207.207031 C 179.632812 207.207031 185.617188 202.570312 185.617188 195.109375 C 185.617188 189.589844 181.554688 186.320312 173.925781 184.664062 Z M 173.925781 184.664062 "/></g><g clip-rule="nonzero" clip-path="url(#f645eb4a39)"><path style=" stroke:none;fill-rule:nonzero;fill:#ffffff;fill-opacity:1;" d="M 181.425781 167.460938 L 185.175781 167.460938 L 185.175781 207.539062 L 181.425781 207.539062 Z M 181.425781 167.460938 "/></g><g clip-rule="nonzero" clip-path="url(#962be8414d)"><path style=" stroke:none;fill-rule:nonzero;fill:#ff0000;fill-opacity:1;" d="M 203.554688 194.1875 C 203.175781 194.1875 202.855469 194.441406 202.730469 194.800781 C 201.527344 198.292969 198.15625 200.222656 193.816406 200.222656 C 187.488281 200.222656 183.664062 195.441406 183.664062 187.277344 C 183.664062 179.140625 187.488281 174.359375 193.789062 174.359375 C 198.230469 174.359375 201.675781 176.667969 202.808594 180.601562 C 202.917969 180.984375 203.246094 181.253906 203.640625 181.253906 C 203.640625 181.253906 208.414062 181.257812 209.960938 181.253906 C 210.21875 181.253906 210.421875 181.023438 210.386719 180.769531 C 209.378906 173.039062 202.4375 167.460938 193.789062 167.460938 C 182.757812 167.460938 175.902344 175.0625 175.902344 187.304688 C 175.902344 199.527344 182.765625 207.121094 193.816406 207.121094 C 202.496094 207.121094 209.140625 202.132812 210.386719 194.691406 C 210.429688 194.429688 210.226562 194.1875 209.957031 194.1875 Z M 203.554688 194.1875 "/></g></g></svg>